<?xml version="1.0" encoding="UTF-8" standalone="no"?><!-- Generator: Gravit.io --><svg xmlns="http://www.w3.org/2000/svg" xmlns:xlink="http://www.w3.org/1999/xlink" style="isolation:isolate" viewBox="0 0 229.314 1054.062" width="229.314pt" height="1054.062pt"><path d=" M 101.838 598.465 C 69.534 609.476 65.444 656.721 95.572 670.829 C 100.003 672.905 99.904 671.949 97.577 690.067 C 90.105 748.267 64.656 817.927 37.204 855.323 C 35.539 857.591 34.177 859.612 34.177 859.814 C 34.177 860.017 31.636 864.036 28.53 868.748 C -25.974 951.416 17.353 1050.472 109.546 1053.972 C 165.371 1056.089 209.747 1020.74 222.328 964.13 C 236.342 900.113 225.154 836.722 223.892 839.843 C 223.696 840.327 222.531 844.565 221.304 849.262 C 214.273 876.164 197.913 905.999 174.914 933.861 L 172.156 937.203 L 180.073 936.605 C 184.428 936.276 190.225 936.287 192.957 936.628 L 197.923 937.249 L 197.919 943.127 C 197.89 989.183 163.374 1025.672 118.051 1027.561 C 55.895 1030.15 16.089 974.955 35.591 913.224 C 39.768 899.998 41.098 897.586 62.549 864.303 C 96.459 811.692 117.719 749.086 125.289 679.551 L 125.871 674.201 L 130.981 671.854 C 175.425 651.455 148.117 582.691 101.838 598.465 Z  M 122.136 620.158 C 134.96 626.7 135.018 645.202 122.234 651.668 C 105.294 660.236 88.655 639.005 100.903 624.45 C 105.722 618.722 115.462 616.752 122.136 620.158 Z " fill-rule="evenodd" fill="rgb(0,0,0)"/><line x1="114.466" y1="407.598" x2="114.466" y2="7.156"/><rect x="107.299" y="0" width="14.334" height="363.333" transform="matrix(1,0,0,1,0,0)" fill="rgb(0,0,0)"/><path d=" M 0 585.02 L 228.931 585.02 L 228.931 607.913 C 228.931 652.136 193.028 688.039 148.805 688.039 L 80.126 688.039 C 35.903 688.039 0 652.136 0 607.913 L 0 585.02 Z " fill="rgb(210,0,0)"/><path d=" M 0 459.108 L 228.931 459.108 L 228.931 436.215 C 228.931 391.992 193.028 356.089 148.805 356.089 L 80.126 356.089 C 35.903 356.089 0 391.992 0 436.215 L 0 459.108 Z " fill="rgb(210,0,0)"/><rect x="0" y="487.724" width="228.931" height="68.679" transform="matrix(1,0,0,1,0,0)" fill="rgb(234,234,234)"/></svg>