<?xml version="1.0" encoding="UTF-8" standalone="no"?><!-- Generator: Gravit.io --><svg xmlns="http://www.w3.org/2000/svg" xmlns:xlink="http://www.w3.org/1999/xlink" style="isolation:isolate" viewBox="1425.04 1737 532.68 312.944" width="532.68pt" height="312.944pt"><g><circle vector-effect="non-scaling-stroke" cx="1581.5122902390192" cy="1893.4720680710504" r="56.472068071050444" fill="rgb(2,127,255)"/><path d=" M 1605.473 1903.386 L 1615.386 1893.472 L 1605.473 1883.558 L 1605.473 1869.512 L 1591.426 1869.512 L 1581.512 1859.598 L 1571.599 1869.512 L 1557.552 1869.512 L 1557.552 1883.558 L 1547.638 1893.472 L 1557.552 1903.386 L 1557.552 1917.432 L 1571.599 1917.432 L 1581.512 1927.346 L 1591.426 1917.432 L 1605.473 1917.432 L 1605.473 1903.386 Z  M 1581.512 1911.442 C 1571.599 1911.442 1563.542 1903.386 1563.542 1893.472 C 1563.542 1883.558 1571.599 1875.502 1581.512 1875.502 C 1591.426 1875.502 1599.483 1883.558 1599.483 1893.472 C 1599.483 1903.386 1591.426 1911.442 1581.512 1911.442 Z " fill="rgb(237,245,253)"/><path d=" M 1680.008 1878.946 L 1680.008 1878.946 L 1679.442 1887.715 L 1679.233 1887.775 L 1679.233 1887.775 Q 1677.026 1884.464 1671.716 1883.48 L 1671.716 1883.48 L 1671.716 1883.48 Q 1670.046 1883.152 1668.51 1883.152 L 1668.51 1883.152 L 1668.51 1883.152 Q 1666.974 1883.152 1665.885 1883.42 L 1665.885 1883.42 L 1665.885 1883.42 Q 1664.796 1883.689 1664.021 1884.196 L 1664.021 1884.196 L 1664.021 1884.196 Q 1662.38 1885.27 1662.38 1887 L 1662.38 1887 L 1662.38 1887 Q 1662.38 1889.266 1663.812 1890.4 L 1663.812 1890.4 L 1663.812 1890.4 Q 1665.602 1891.772 1669.748 1892.324 L 1669.748 1892.324 L 1669.748 1892.324 Q 1673.894 1892.876 1676.399 1893.83 L 1676.399 1893.83 L 1676.399 1893.83 Q 1678.905 1894.784 1680.515 1896.246 L 1680.515 1896.246 L 1680.515 1896.246 Q 1683.558 1898.99 1683.558 1904.001 L 1683.558 1904.001 L 1683.558 1904.001 Q 1683.558 1910.563 1678.606 1914.113 L 1678.606 1914.113 L 1678.606 1914.113 Q 1674.371 1917.155 1667.928 1917.155 L 1667.928 1917.155 L 1667.928 1917.155 Q 1662.738 1917.155 1657.668 1915.186 L 1657.668 1915.186 L 1657.668 1915.186 Q 1655.997 1914.53 1654.745 1913.665 L 1654.745 1913.665 L 1655.073 1903.703 L 1655.192 1903.613 L 1655.192 1903.613 Q 1658.891 1909.996 1667.332 1909.996 L 1667.332 1909.996 L 1667.332 1909.996 Q 1673.327 1909.996 1675.266 1907.103 L 1675.266 1907.103 L 1675.266 1907.103 Q 1675.922 1906.119 1675.922 1904.911 L 1675.922 1904.911 L 1675.922 1904.911 Q 1675.922 1903.703 1675.534 1902.912 L 1675.534 1902.912 L 1675.534 1902.912 Q 1675.147 1902.122 1674.252 1901.555 L 1674.252 1901.555 L 1674.252 1901.555 Q 1672.522 1900.422 1668.435 1900.034 L 1668.435 1900.034 L 1668.435 1900.034 Q 1664.349 1899.646 1661.754 1898.573 L 1661.754 1898.573 L 1661.754 1898.573 Q 1659.159 1897.499 1657.608 1895.918 L 1657.608 1895.918 L 1657.608 1895.918 Q 1654.804 1893.054 1654.804 1887.924 L 1654.804 1887.924 L 1654.804 1887.924 Q 1654.804 1882.615 1658.533 1879.334 L 1658.533 1879.334 L 1658.533 1879.334 Q 1662.321 1875.993 1668.749 1875.993 L 1668.749 1875.993 L 1668.749 1875.993 Q 1675.176 1875.993 1680.008 1878.946 Z  M 1709.567 1916.409 L 1709.567 1913.695 L 1709.567 1913.695 Q 1705.749 1916.857 1701.245 1916.857 L 1701.245 1916.857 L 1701.245 1916.857 Q 1696.413 1916.857 1693.669 1913.606 L 1693.669 1913.606 L 1693.669 1913.606 Q 1691.045 1910.444 1691.045 1904.926 L 1691.045 1904.926 L 1691.045 1893.084 L 1691.045 1893.084 Q 1691.045 1887.119 1690.791 1886.239 L 1690.791 1886.239 L 1690.791 1886.239 Q 1690.537 1885.359 1690.418 1885.12 L 1690.418 1885.12 L 1690.418 1885.12 Q 1691.79 1885.24 1693.282 1885.24 L 1693.282 1885.24 L 1695.757 1885.24 L 1695.757 1885.24 Q 1696.742 1885.24 1698.352 1885.15 L 1698.352 1885.15 L 1698.352 1902.42 L 1698.352 1902.42 Q 1698.352 1908.565 1701.693 1909.549 L 1701.693 1909.549 L 1701.693 1909.549 Q 1702.707 1909.847 1703.9 1909.847 L 1703.9 1909.847 L 1703.9 1909.847 Q 1707.42 1909.847 1709.567 1907.282 L 1709.567 1907.282 L 1709.567 1885.24 L 1716.965 1885.24 L 1716.965 1912.591 L 1716.965 1912.591 Q 1716.965 1915.216 1717.203 1916.409 L 1717.203 1916.409 L 1709.567 1916.409 Z  M 1734.324 1895.56 L 1734.324 1912.591 L 1734.324 1912.591 Q 1734.324 1915.216 1734.563 1916.409 L 1734.563 1916.409 L 1727.076 1916.409 L 1727.076 1885.24 L 1734.324 1885.24 L 1734.324 1887.894 L 1734.324 1887.894 Q 1738.261 1884.643 1742.735 1884.643 L 1742.735 1884.643 L 1742.735 1884.643 Q 1747.627 1884.643 1750.55 1887.969 L 1750.55 1887.969 L 1750.55 1887.969 Q 1753.473 1891.295 1753.473 1896.723 L 1753.473 1896.723 L 1753.473 1908.595 L 1753.473 1908.595 Q 1753.473 1913.635 1753.622 1914.65 L 1753.622 1914.65 L 1753.622 1914.65 Q 1753.772 1915.664 1754.025 1915.962 L 1754.025 1915.962 L 1754.025 1915.962 Q 1754.279 1916.26 1754.458 1916.499 L 1754.458 1916.499 L 1754.398 1916.618 L 1754.398 1916.618 Q 1751.982 1916.409 1750.878 1916.409 L 1750.878 1916.409 L 1748.79 1916.409 L 1748.79 1916.409 Q 1747.836 1916.409 1746.225 1916.499 L 1746.225 1916.499 L 1746.225 1900.243 L 1746.225 1900.243 Q 1746.225 1891.503 1740.916 1891.503 L 1740.916 1891.503 L 1740.916 1891.503 Q 1736.979 1891.503 1734.324 1895.56 L 1734.324 1895.56 Z  M 1769.222 1894.695 L 1769.222 1913.069 L 1769.222 1913.069 Q 1769.222 1915.634 1769.341 1916.409 L 1769.341 1916.409 L 1761.914 1916.409 L 1761.914 1885.24 L 1769.222 1885.24 L 1769.222 1887.536 L 1769.222 1887.536 Q 1771.757 1884.643 1774.546 1884.643 L 1774.546 1884.643 L 1774.546 1884.643 Q 1777.335 1884.643 1778.946 1885.329 L 1778.946 1885.329 L 1778.409 1893.353 L 1778.29 1893.442 L 1778.29 1893.442 Q 1777.246 1891.593 1773.965 1891.593 L 1773.965 1891.593 L 1773.965 1891.593 Q 1772.712 1891.593 1771.414 1892.443 L 1771.414 1892.443 L 1771.414 1892.443 Q 1770.117 1893.293 1769.222 1894.695 L 1769.222 1894.695 Z  M 1788.341 1881.183 L 1781.63 1876.351 L 1781.63 1876.351 Q 1784.017 1872.623 1786.612 1869.789 L 1786.612 1869.789 L 1793.024 1874.83 L 1793.024 1874.83 Q 1791.742 1876.411 1790.638 1877.932 L 1790.638 1877.932 L 1790.638 1877.932 Q 1790.638 1877.932 1788.341 1881.183 L 1788.341 1881.183 Z  M 1789.475 1885.24 L 1789.475 1913.069 L 1789.475 1913.069 Q 1789.475 1915.634 1789.594 1916.409 L 1789.594 1916.409 L 1782.018 1916.409 L 1782.018 1885.24 L 1789.475 1885.24 Z  M 1808.386 1916.857 L 1808.386 1916.857 L 1808.386 1916.857 Q 1799.974 1916.857 1795.709 1913.785 L 1795.709 1913.785 L 1795.709 1913.785 Q 1795.769 1912.89 1795.888 1911.756 L 1795.888 1911.756 L 1796.156 1909.609 L 1796.156 1909.609 Q 1796.395 1907.491 1796.455 1906.969 L 1796.455 1906.969 L 1796.455 1906.969 Q 1796.514 1906.447 1796.544 1906.402 L 1796.544 1906.402 L 1796.544 1906.402 Q 1796.574 1906.358 1797.021 1906.879 L 1797.021 1906.879 L 1797.021 1906.879 Q 1797.469 1907.401 1798.721 1908.147 L 1798.721 1908.147 L 1798.721 1908.147 Q 1799.974 1908.893 1801.615 1909.46 L 1801.615 1909.46 L 1801.615 1909.46 Q 1805.164 1910.682 1809.012 1910.682 L 1809.012 1910.682 L 1809.012 1910.682 Q 1814.172 1910.682 1814.172 1907.252 L 1814.172 1907.252 L 1814.172 1907.252 Q 1814.172 1906.149 1813.188 1905.612 L 1813.188 1905.612 L 1813.188 1905.612 Q 1811.428 1904.717 1808.013 1904.255 L 1808.013 1904.255 L 1808.013 1904.255 Q 1804.597 1903.792 1802.42 1902.898 L 1802.42 1902.898 L 1802.42 1902.898 Q 1800.243 1902.003 1798.871 1900.75 L 1798.871 1900.75 L 1798.871 1900.75 Q 1796.335 1898.394 1796.335 1894.576 L 1796.335 1894.576 L 1796.335 1894.576 Q 1796.335 1889.923 1799.915 1887.268 L 1799.915 1887.268 L 1799.915 1887.268 Q 1803.464 1884.643 1809.728 1884.643 L 1809.728 1884.643 L 1809.728 1884.643 Q 1815.932 1884.643 1820.316 1888.163 L 1820.316 1888.163 L 1820.316 1888.163 Q 1820.108 1888.938 1819.869 1889.654 L 1819.869 1889.654 L 1819.869 1889.654 Q 1819.183 1891.623 1818.855 1892.488 L 1818.855 1892.488 L 1818.169 1894.248 L 1818.169 1894.248 Q 1818.109 1894.486 1818.079 1894.486 L 1818.079 1894.486 L 1818.079 1894.486 Q 1818.02 1894.486 1817.602 1893.86 L 1817.602 1893.86 L 1817.602 1893.86 Q 1815.723 1891.682 1811.756 1890.996 L 1811.756 1890.996 L 1811.756 1890.996 Q 1810.533 1890.758 1809.251 1890.758 L 1809.251 1890.758 L 1809.251 1890.758 Q 1803.822 1890.758 1803.822 1894.039 L 1803.822 1894.039 L 1803.822 1894.039 Q 1803.822 1895.172 1804.955 1895.769 L 1804.955 1895.769 L 1804.955 1895.769 Q 1807.073 1896.902 1810.757 1897.439 L 1810.757 1897.439 L 1810.757 1897.439 Q 1814.44 1897.976 1816.349 1898.886 L 1816.349 1898.886 L 1816.349 1898.886 Q 1818.258 1899.795 1819.422 1901.078 L 1819.422 1901.078 L 1819.422 1901.078 Q 1821.569 1903.405 1821.569 1907.252 L 1821.569 1907.252 L 1821.569 1907.252 Q 1821.569 1911.458 1818.199 1914.083 L 1818.199 1914.083 L 1818.199 1914.083 Q 1814.679 1916.857 1808.386 1916.857 Z  M 1826.998 1901.078 L 1826.998 1901.078 L 1826.998 1901.078 Q 1826.998 1897.588 1828.191 1894.606 L 1828.191 1894.606 L 1828.191 1894.606 Q 1829.384 1891.623 1831.561 1889.386 L 1831.561 1889.386 L 1831.561 1889.386 Q 1836.214 1884.643 1843.731 1884.643 L 1843.731 1884.643 L 1843.731 1884.643 Q 1850.084 1884.643 1853.932 1888.849 L 1853.932 1888.849 L 1853.932 1888.849 Q 1857.72 1892.905 1857.72 1899.05 L 1857.72 1899.05 L 1857.72 1899.05 Q 1857.72 1901.406 1857.362 1902.271 L 1857.362 1902.271 L 1857.362 1902.271 Q 1854.379 1903.106 1845.222 1903.106 L 1845.222 1903.106 L 1834.723 1903.106 L 1834.723 1903.106 Q 1835.499 1906.298 1838.332 1908.073 L 1838.332 1908.073 L 1838.332 1908.073 Q 1841.166 1909.847 1845.7 1909.847 L 1845.7 1909.847 L 1845.7 1909.847 Q 1850.442 1909.847 1853.842 1908.147 L 1853.842 1908.147 L 1853.842 1908.147 Q 1854.737 1907.7 1855.185 1907.312 L 1855.185 1907.312 L 1855.185 1907.312 Q 1855.125 1908.565 1855.036 1909.877 L 1855.036 1909.877 L 1854.707 1914.53 L 1854.707 1914.53 Q 1852.441 1916.081 1847.37 1916.678 L 1847.37 1916.678 L 1847.37 1916.678 Q 1845.879 1916.857 1844.506 1916.857 L 1844.506 1916.857 L 1844.506 1916.857 Q 1836.93 1916.857 1831.979 1912.442 L 1831.979 1912.442 L 1831.979 1912.442 Q 1826.998 1907.998 1826.998 1901.078 Z  M 1849.786 1897.32 L 1849.786 1897.32 L 1849.786 1897.32 Q 1848.563 1890.907 1842.806 1890.907 L 1842.806 1890.907 L 1842.806 1890.907 Q 1838.273 1890.907 1835.916 1894.814 L 1835.916 1894.814 L 1835.916 1894.814 Q 1835.2 1896.007 1834.813 1897.439 L 1834.813 1897.439 L 1834.813 1897.439 Q 1835.528 1897.469 1836.572 1897.499 L 1836.572 1897.499 L 1838.78 1897.499 L 1838.78 1897.499 Q 1839.883 1897.529 1840.897 1897.529 L 1840.897 1897.529 L 1842.598 1897.529 L 1842.598 1897.529 Q 1844.119 1897.529 1845.58 1897.499 L 1845.58 1897.499 L 1848.026 1897.409 L 1848.026 1897.409 Q 1849.01 1897.379 1849.786 1897.32 Z " fill="rgb(0,0,0)"/></g></svg>